<svg xmlns="http://www.w3.org/2000/svg" width="238.5" height="28.688" viewBox="0 0 238.5 28.688">
  <defs>
    <style>
      .cls-1 {
        fill: #fff;
        fill-rule: evenodd;
      }
    </style>
  </defs>
  <path id="Tenkue_Hotel" data-name="Tenkue Hotel" class="cls-1" d="M18.544,7.993V4.335H2.808V7.993h5.93V30.127H12.63V7.993h5.914Zm21.194,14a9,9,0,0,0-2.071-6.3,7.308,7.308,0,0,0-5.68-2.289,7.372,7.372,0,0,0-5.713,2.355,9.013,9.013,0,0,0-2.138,6.248,8.772,8.772,0,0,0,2.205,6.248A7.658,7.658,0,0,0,32.188,30.6a9.852,9.852,0,0,0,2.355-.267,7.038,7.038,0,0,0,2.021-.844,8.263,8.263,0,0,0,1.754-1.47,12.631,12.631,0,0,0,1.553-2.147L36.7,24.1a9.5,9.5,0,0,1-2.055,2.472,3.845,3.845,0,0,1-2.322.668,3.972,3.972,0,0,1-2.957-1.169,4.941,4.941,0,0,1-1.3-3.191h11.66ZM28.312,19.8a4.384,4.384,0,0,1,.535-1.253,3.811,3.811,0,0,1,.844-0.944,3.686,3.686,0,0,1,1.094-.6,3.9,3.9,0,0,1,1.286-.209A3.6,3.6,0,0,1,35.863,19.8H28.312ZM47.58,30.127h3.775V22.276a8.505,8.505,0,0,1,.768-4.26A2.9,2.9,0,0,1,54.78,16.78a2.7,2.7,0,0,1,2.372.935,5.961,5.961,0,0,1,.668,3.324v9.088H61.6V20.155q0-3.441-1.37-4.961A5.612,5.612,0,0,0,55.8,13.406a6.16,6.16,0,0,0-4.443,1.955v-1.5H47.58V30.127ZM70.256,1.913V30.127h3.759V23.863l0.6-.6,5.379,6.866h4.878l-7.584-9.438,7.066-6.832H79.31l-5.3,5.262V1.913H70.256ZM90.364,13.857v9.422a9.3,9.3,0,0,0,.468,3.374,5.755,5.755,0,0,0,1.654,2.289,7.9,7.9,0,0,0,9.672,0,5.671,5.671,0,0,0,1.62-2.289,10.48,10.48,0,0,0,.485-3.374V13.857H100.5v9.338q0,4.043-3.19,4.043t-3.191-4.043V13.857H90.364Zm37.51,8.135a9.007,9.007,0,0,0-2.071-6.3,8.149,8.149,0,0,0-11.393.067,9.012,9.012,0,0,0-2.138,6.248,8.772,8.772,0,0,0,2.2,6.248,7.656,7.656,0,0,0,5.846,2.339,9.851,9.851,0,0,0,2.356-.267,7.035,7.035,0,0,0,2.021-.844,8.256,8.256,0,0,0,1.754-1.47,12.654,12.654,0,0,0,1.554-2.147L124.834,24.1a9.525,9.525,0,0,1-2.055,2.472,3.847,3.847,0,0,1-2.322.668,3.973,3.973,0,0,1-2.957-1.169,4.942,4.942,0,0,1-1.3-3.191h11.66ZM116.448,19.8a4.369,4.369,0,0,1,.534-1.253,3.809,3.809,0,0,1,.844-0.944,3.681,3.681,0,0,1,1.094-.6,3.9,3.9,0,0,1,1.286-.209A3.6,3.6,0,0,1,124,19.8h-7.55ZM154.017,4.335h-3.893V30.127h3.893V18.083h11.125V30.127h3.892V4.335h-3.892v10.09H154.017V4.335ZM180.2,28.089a8.268,8.268,0,0,0,6.131,2.506,8.622,8.622,0,0,0,6.231-2.456,8.242,8.242,0,0,0,2.522-6.131,8.282,8.282,0,0,0-2.506-6.114,8.9,8.9,0,0,0-12.328-.017,8.083,8.083,0,0,0-2.522,6,8.427,8.427,0,0,0,2.472,6.214h0Zm2.706-9.856a5,5,0,0,1,7.016,0,5.348,5.348,0,0,1,1.32,3.792,5.347,5.347,0,0,1-1.32,3.792,5.063,5.063,0,0,1-7.049-.017,5.485,5.485,0,0,1-1.3-3.859A5.228,5.228,0,0,1,182.91,18.234Zm26.348-.869V13.857h-2.923V7.893h-3.759v5.964h-1.6v3.508h1.6V30.127h3.759V17.365h2.923ZM229.7,21.992a9.007,9.007,0,0,0-2.071-6.3,8.149,8.149,0,0,0-11.393.067,9.012,9.012,0,0,0-2.138,6.248,8.772,8.772,0,0,0,2.2,6.248,7.656,7.656,0,0,0,5.846,2.339,9.851,9.851,0,0,0,2.356-.267,7.035,7.035,0,0,0,2.021-.844,8.256,8.256,0,0,0,1.754-1.47,12.6,12.6,0,0,0,1.554-2.147L226.66,24.1a9.525,9.525,0,0,1-2.055,2.472,3.845,3.845,0,0,1-2.322.668,3.973,3.973,0,0,1-2.957-1.169,4.947,4.947,0,0,1-1.3-3.191h11.66ZM218.274,19.8a4.4,4.4,0,0,1,.534-1.253,3.809,3.809,0,0,1,.844-0.944,3.681,3.681,0,0,1,1.094-.6,3.9,3.9,0,0,1,1.287-.209,3.6,3.6,0,0,1,3.792,3.007h-7.551ZM237.542,1.913V30.127H241.3V1.913h-3.758Z" transform="translate(-2.813 -1.906)"/>
</svg>
